<?xml version="1.0" encoding="UTF-8"?>
<svg xmlns="http://www.w3.org/2000/svg" viewBox="0 0 400 200">
  <!-- Background -->
  <defs>
    <linearGradient id="bg-gradient" x1="0%" y1="0%" x2="100%" y2="100%">
      <stop offset="0%" stop-color="#0a192f" />
      <stop offset="100%" stop-color="#112240" />
    </linearGradient>
  </defs>
  
  <!-- Main logo elements -->
  <g>
    <!-- Central globe/network -->
    <circle cx="200" cy="100" r="70" fill="none" stroke="#64ffda" stroke-width="2" opacity="0.3" />
    <circle cx="200" cy="100" r="55" fill="none" stroke="#64ffda" stroke-width="1.5" opacity="0.5" />
    <circle cx="200" cy="100" r="40" fill="none" stroke="#64ffda" stroke-width="1" opacity="0.7" />
    
    <!-- Network points -->
    <circle cx="200" cy="30" r="5" fill="#64ffda" />
    <circle cx="140" cy="70" r="4" fill="#64ffda" />
    <circle cx="260" cy="70" r="4" fill="#64ffda" />
    <circle cx="150" cy="150" r="4" fill="#64ffda" />
    <circle cx="250" cy="150" r="4" fill="#64ffda" />
    <circle cx="200" cy="170" r="5" fill="#64ffda" />
    <circle cx="130" cy="120" r="3" fill="#64ffda" />
    <circle cx="270" cy="120" r="3" fill="#64ffda" />
    
    <!-- Network lines -->
    <line x1="200" y1="30" x2="140" y2="70" stroke="#64ffda" stroke-width="1.5" opacity="0.7" />
    <line x1="200" y1="30" x2="260" y2="70" stroke="#64ffda" stroke-width="1.5" opacity="0.7" />
    <line x1="140" y1="70" x2="150" y2="150" stroke="#64ffda" stroke-width="1.5" opacity="0.7" />
    <line x1="260" y1="70" x2="250" y2="150" stroke="#64ffda" stroke-width="1.5" opacity="0.7" />
    <line x1="150" y1="150" x2="200" y2="170" stroke="#64ffda" stroke-width="1.5" opacity="0.7" />
    <line x1="250" y1="150" x2="200" y2="170" stroke="#64ffda" stroke-width="1.5" opacity="0.7" />
    <line x1="140" y1="70" x2="130" y2="120" stroke="#64ffda" stroke-width="1.5" opacity="0.7" />
    <line x1="260" y1="70" x2="270" y2="120" stroke="#64ffda" stroke-width="1.5" opacity="0.7" />
    <line x1="130" y1="120" x2="150" y2="150" stroke="#64ffda" stroke-width="1.5" opacity="0.7" />
    <line x1="270" y1="120" x2="250" y2="150" stroke="#64ffda" stroke-width="1.5" opacity="0.7" />
    
    <!-- Central hexagon -->
    <polygon points="200,70 230,85 230,115 200,130 170,115 170,85" fill="#0a192f" stroke="#ffffff" stroke-width="2" />
    
    <!-- Abstract central element -->
    <circle cx="200" cy="100" r="15" fill="#64ffda" opacity="0.9" />
    <circle cx="200" cy="100" r="8" fill="#ffffff" />
  </g>
</svg>